<?xml version="1.0" encoding="UTF-8" standalone="no"?>
<!DOCTYPE svg PUBLIC "-//W3C//DTD SVG 1.1//EN"
 "http://www.w3.org/Graphics/SVG/1.1/DTD/svg11.dtd">
<!-- Generated by graphviz version 5.0.0 (20220707.1540)
 -->
<!-- Title: dependencies Pages: 1 -->
<svg width="3772pt" height="247pt"
 viewBox="0.00 0.00 3772.00 246.80" xmlns="http://www.w3.org/2000/svg" xmlns:xlink="http://www.w3.org/1999/xlink">
<g id="graph0" class="graph" transform="scale(1 1) rotate(0) translate(4 242.8)">
<title>dependencies</title>
<polygon fill="white" stroke="transparent" points="-4,4 -4,-242.8 3768,-242.8 3768,4 -4,4"/>
<text text-anchor="middle" x="1882" y="-8.2" font-family="sans-serif" font-size="14.00">dependencies</text>
<g id="clust1" class="cluster">
<title>cluster_AppModule</title>
<polygon fill="none" stroke="black" stroke-dasharray="1,5" points="8,-32.8 8,-230.8 3300,-230.8 3300,-32.8 8,-32.8"/>
</g>
<g id="clust2" class="cluster">
<title>cluster_AppModule_declarations</title>
<polygon fill="none" stroke="black" points="310,-40.8 310,-92.8 3292,-92.8 3292,-40.8 310,-40.8"/>
</g>
<g id="clust22" class="cluster">
<title>cluster_AppModule_imports</title>
<polygon fill="none" stroke="black" points="158,-40.8 158,-92.8 302,-92.8 302,-40.8 158,-40.8"/>
</g>
<g id="clust24" class="cluster">
<title>cluster_AppModule_bootstrap</title>
<polygon fill="none" stroke="black" points="1700,-170.8 1700,-222.8 1824,-222.8 1824,-170.8 1700,-170.8"/>
</g>
<g id="clust25" class="cluster">
<title>cluster_AppModule_providers</title>
<polygon fill="none" stroke="black" points="16,-40.8 16,-92.8 150,-92.8 150,-40.8 16,-40.8"/>
</g>
<g id="clust32" class="cluster">
<title>cluster_AuthModule</title>
<polygon fill="none" stroke="black" stroke-dasharray="1,5" points="3308,-32.8 3308,-157.8 3756,-157.8 3756,-32.8 3308,-32.8"/>
</g>
<g id="clust33" class="cluster">
<title>cluster_AuthModule_declarations</title>
<polygon fill="none" stroke="black" points="3472,-40.8 3472,-92.8 3748,-92.8 3748,-40.8 3472,-40.8"/>
</g>
<g id="clust36" class="cluster">
<title>cluster_AuthModule_imports</title>
<polygon fill="none" stroke="black" points="3316,-40.8 3316,-92.8 3464,-92.8 3464,-40.8 3316,-40.8"/>
</g>
<!-- AppComponent -->
<g id="node1" class="node">
<title>AppComponent</title>
<polygon fill="#ffffb3" stroke="black" points="3283.94,-84.8 3178.06,-84.8 3178.06,-48.8 3283.94,-48.8 3283.94,-84.8"/>
<text text-anchor="middle" x="3231" y="-62.6" font-family="Times,serif" font-size="14.00">AppComponent</text>
</g>
<!-- AppModule -->
<g id="node20" class="node">
<title>AppModule</title>
<polygon fill="#8dd3c7" stroke="black" points="1803.66,-149.8 1800.66,-153.8 1779.66,-153.8 1776.66,-149.8 1720.34,-149.8 1720.34,-113.8 1803.66,-113.8 1803.66,-149.8"/>
<text text-anchor="middle" x="1762" y="-127.6" font-family="Times,serif" font-size="14.00">AppModule</text>
</g>
<!-- AppComponent&#45;&gt;AppModule -->
<g id="edge1" class="edge">
<title>AppComponent&#45;&gt;AppModule</title>
<path fill="none" stroke="black" d="M3231,-84.95C3231,-108.56 3231,-146.8 3231,-146.8 3231,-146.8 1813.99,-146.8 1813.99,-146.8"/>
<polygon fill="black" stroke="black" points="1813.99,-143.3 1803.99,-146.8 1813.99,-150.3 1813.99,-143.3"/>
</g>
<!-- DetailsComponent -->
<g id="node2" class="node">
<title>DetailsComponent</title>
<polygon fill="#ffffb3" stroke="black" points="3160.49,-84.8 3039.51,-84.8 3039.51,-48.8 3160.49,-48.8 3160.49,-84.8"/>
<text text-anchor="middle" x="3100" y="-62.6" font-family="Times,serif" font-size="14.00">DetailsComponent</text>
</g>
<!-- DetailsComponent&#45;&gt;AppModule -->
<g id="edge2" class="edge">
<title>DetailsComponent&#45;&gt;AppModule</title>
<path fill="none" stroke="black" d="M3100,-85.05C3100,-107.82 3100,-143.8 3100,-143.8 3100,-143.8 1813.88,-143.8 1813.88,-143.8"/>
<polygon fill="black" stroke="black" points="1813.88,-140.3 1803.88,-143.8 1813.88,-147.3 1813.88,-140.3"/>
</g>
<!-- FooterComponent -->
<g id="node3" class="node">
<title>FooterComponent</title>
<polygon fill="#ffffb3" stroke="black" points="3021.88,-84.8 2904.12,-84.8 2904.12,-48.8 3021.88,-48.8 3021.88,-84.8"/>
<text text-anchor="middle" x="2963" y="-62.6" font-family="Times,serif" font-size="14.00">FooterComponent</text>
</g>
<!-- FooterComponent&#45;&gt;AppModule -->
<g id="edge3" class="edge">
<title>FooterComponent&#45;&gt;AppModule</title>
<path fill="none" stroke="black" d="M2963,-85.09C2963,-107.01 2963,-140.8 2963,-140.8 2963,-140.8 1813.69,-140.8 1813.69,-140.8"/>
<polygon fill="black" stroke="black" points="1813.69,-137.3 1803.69,-140.8 1813.69,-144.3 1813.69,-137.3"/>
</g>
<!-- HomeSliderComponent -->
<g id="node4" class="node">
<title>HomeSliderComponent</title>
<polygon fill="#ffffb3" stroke="black" points="2886.49,-84.8 2737.51,-84.8 2737.51,-48.8 2886.49,-48.8 2886.49,-84.8"/>
<text text-anchor="middle" x="2812" y="-62.6" font-family="Times,serif" font-size="14.00">HomeSliderComponent</text>
</g>
<!-- HomeSliderComponent&#45;&gt;AppModule -->
<g id="edge4" class="edge">
<title>HomeSliderComponent&#45;&gt;AppModule</title>
<path fill="none" stroke="black" d="M2812,-85.08C2812,-106.12 2812,-137.8 2812,-137.8 2812,-137.8 1813.81,-137.8 1813.81,-137.8"/>
<polygon fill="black" stroke="black" points="1813.81,-134.3 1803.81,-137.8 1813.81,-141.3 1813.81,-134.3"/>
</g>
<!-- ItemCardComponent -->
<g id="node5" class="node">
<title>ItemCardComponent</title>
<polygon fill="#ffffb3" stroke="black" points="2719.2,-84.8 2584.8,-84.8 2584.8,-48.8 2719.2,-48.8 2719.2,-84.8"/>
<text text-anchor="middle" x="2652" y="-62.6" font-family="Times,serif" font-size="14.00">ItemCardComponent</text>
</g>
<!-- ItemCardComponent&#45;&gt;AppModule -->
<g id="edge5" class="edge">
<title>ItemCardComponent&#45;&gt;AppModule</title>
<path fill="none" stroke="black" d="M2652,-85.02C2652,-105.17 2652,-134.8 2652,-134.8 2652,-134.8 1813.73,-134.8 1813.73,-134.8"/>
<polygon fill="black" stroke="black" points="1813.73,-131.3 1803.73,-134.8 1813.73,-138.3 1813.73,-131.3"/>
</g>
<!-- ItemsComponent -->
<g id="node6" class="node">
<title>ItemsComponent</title>
<polygon fill="#ffffb3" stroke="black" points="2567.44,-84.8 2454.56,-84.8 2454.56,-48.8 2567.44,-48.8 2567.44,-84.8"/>
<text text-anchor="middle" x="2511" y="-62.6" font-family="Times,serif" font-size="14.00">ItemsComponent</text>
</g>
<!-- ItemsComponent&#45;&gt;AppModule -->
<g id="edge6" class="edge">
<title>ItemsComponent&#45;&gt;AppModule</title>
<path fill="none" stroke="black" d="M2511,-84.91C2511,-104.14 2511,-131.8 2511,-131.8 2511,-131.8 1813.87,-131.8 1813.87,-131.8"/>
<polygon fill="black" stroke="black" points="1813.87,-128.3 1803.87,-131.8 1813.87,-135.3 1813.87,-128.3"/>
</g>
<!-- LandingPageComponent -->
<g id="node7" class="node">
<title>LandingPageComponent</title>
<polygon fill="#ffffb3" stroke="black" points="2436.7,-84.8 2281.3,-84.8 2281.3,-48.8 2436.7,-48.8 2436.7,-84.8"/>
<text text-anchor="middle" x="2359" y="-62.6" font-family="Times,serif" font-size="14.00">LandingPageComponent</text>
</g>
<!-- LandingPageComponent&#45;&gt;AppModule -->
<g id="edge7" class="edge">
<title>LandingPageComponent&#45;&gt;AppModule</title>
<path fill="none" stroke="black" d="M2359,-85.07C2359,-103.36 2359,-128.8 2359,-128.8 2359,-128.8 1813.98,-128.8 1813.98,-128.8"/>
<polygon fill="black" stroke="black" points="1813.98,-125.3 1803.98,-128.8 1813.98,-132.3 1813.98,-125.3"/>
</g>
<!-- NavBarComponent -->
<g id="node8" class="node">
<title>NavBarComponent</title>
<polygon fill="#ffffb3" stroke="black" points="2263.37,-84.8 2138.63,-84.8 2138.63,-48.8 2263.37,-48.8 2263.37,-84.8"/>
<text text-anchor="middle" x="2201" y="-62.6" font-family="Times,serif" font-size="14.00">NavBarComponent</text>
</g>
<!-- NavBarComponent&#45;&gt;AppModule -->
<g id="edge8" class="edge">
<title>NavBarComponent&#45;&gt;AppModule</title>
<path fill="none" stroke="black" d="M2201,-84.82C2201,-102.17 2201,-125.8 2201,-125.8 2201,-125.8 1813.7,-125.8 1813.7,-125.8"/>
<polygon fill="black" stroke="black" points="1813.7,-122.3 1803.7,-125.8 1813.7,-129.3 1813.7,-122.3"/>
</g>
<!-- NotFoundComponent -->
<g id="node9" class="node">
<title>NotFoundComponent</title>
<polygon fill="#ffffb3" stroke="black" points="2121.12,-84.8 1982.88,-84.8 1982.88,-48.8 2121.12,-48.8 2121.12,-84.8"/>
<text text-anchor="middle" x="2052" y="-62.6" font-family="Times,serif" font-size="14.00">NotFoundComponent</text>
</g>
<!-- NotFoundComponent&#45;&gt;AppModule -->
<g id="edge9" class="edge">
<title>NotFoundComponent&#45;&gt;AppModule</title>
<path fill="none" stroke="black" d="M2052,-84.83C2052,-101.2 2052,-122.8 2052,-122.8 2052,-122.8 1813.86,-122.8 1813.86,-122.8"/>
<polygon fill="black" stroke="black" points="1813.86,-119.3 1803.86,-122.8 1813.86,-126.3 1813.86,-119.3"/>
</g>
<!-- RemoveColonPipe -->
<g id="node10" class="node">
<title>RemoveColonPipe</title>
<polygon fill="#ffffb3" stroke="black" points="1964.77,-84.8 1843.23,-84.8 1843.23,-48.8 1964.77,-48.8 1964.77,-84.8"/>
<text text-anchor="middle" x="1904" y="-62.6" font-family="Times,serif" font-size="14.00">RemoveColonPipe</text>
</g>
<!-- RemoveColonPipe&#45;&gt;AppModule -->
<g id="edge10" class="edge">
<title>RemoveColonPipe&#45;&gt;AppModule</title>
<path fill="none" stroke="black" d="M1904,-85.04C1904,-100.37 1904,-119.8 1904,-119.8 1904,-119.8 1813.84,-119.8 1813.84,-119.8"/>
<polygon fill="black" stroke="black" points="1813.84,-116.3 1803.84,-119.8 1813.84,-123.3 1813.84,-116.3"/>
</g>
<!-- RemoveSpacesPipe -->
<g id="node11" class="node">
<title>RemoveSpacesPipe</title>
<polygon fill="#ffffb3" stroke="black" points="1825.42,-84.8 1698.58,-84.8 1698.58,-48.8 1825.42,-48.8 1825.42,-84.8"/>
<text text-anchor="middle" x="1762" y="-62.6" font-family="Times,serif" font-size="14.00">RemoveSpacesPipe</text>
</g>
<!-- RemoveSpacesPipe&#45;&gt;AppModule -->
<g id="edge11" class="edge">
<title>RemoveSpacesPipe&#45;&gt;AppModule</title>
<path fill="none" stroke="black" d="M1762,-84.91C1762,-84.91 1762,-103.79 1762,-103.79"/>
<polygon fill="black" stroke="black" points="1758.5,-103.79 1762,-113.79 1765.5,-103.79 1758.5,-103.79"/>
</g>
<!-- RemoveWhiteSpacePipe -->
<g id="node12" class="node">
<title>RemoveWhiteSpacePipe</title>
<polygon fill="#ffffb3" stroke="black" points="1680.68,-84.8 1525.32,-84.8 1525.32,-48.8 1680.68,-48.8 1680.68,-84.8"/>
<text text-anchor="middle" x="1603" y="-62.6" font-family="Times,serif" font-size="14.00">RemoveWhiteSpacePipe</text>
</g>
<!-- RemoveWhiteSpacePipe&#45;&gt;AppModule -->
<g id="edge12" class="edge">
<title>RemoveWhiteSpacePipe&#45;&gt;AppModule</title>
<path fill="none" stroke="black" d="M1603,-84.92C1603,-99.58 1603,-117.8 1603,-117.8 1603,-117.8 1710.22,-117.8 1710.22,-117.8"/>
<polygon fill="black" stroke="black" points="1710.22,-121.3 1720.22,-117.8 1710.22,-114.3 1710.22,-121.3"/>
</g>
<!-- SearchComponent -->
<g id="node13" class="node">
<title>SearchComponent</title>
<polygon fill="#ffffb3" stroke="black" points="1507.92,-84.8 1388.08,-84.8 1388.08,-48.8 1507.92,-48.8 1507.92,-84.8"/>
<text text-anchor="middle" x="1448" y="-62.6" font-family="Times,serif" font-size="14.00">SearchComponent</text>
</g>
<!-- SearchComponent&#45;&gt;AppModule -->
<g id="edge13" class="edge">
<title>SearchComponent&#45;&gt;AppModule</title>
<path fill="none" stroke="black" d="M1448,-85.08C1448,-100.75 1448,-120.8 1448,-120.8 1448,-120.8 1710.3,-120.8 1710.3,-120.8"/>
<polygon fill="black" stroke="black" points="1710.3,-124.3 1720.3,-120.8 1710.3,-117.3 1710.3,-124.3"/>
</g>
<!-- SliderComponent -->
<g id="node14" class="node">
<title>SliderComponent</title>
<polygon fill="#ffffb3" stroke="black" points="1370.27,-84.8 1255.73,-84.8 1255.73,-48.8 1370.27,-48.8 1370.27,-84.8"/>
<text text-anchor="middle" x="1313" y="-62.6" font-family="Times,serif" font-size="14.00">SliderComponent</text>
</g>
<!-- SliderComponent&#45;&gt;AppModule -->
<g id="edge14" class="edge">
<title>SliderComponent&#45;&gt;AppModule</title>
<path fill="none" stroke="black" d="M1313,-84.84C1313,-101.53 1313,-123.8 1313,-123.8 1313,-123.8 1710.16,-123.8 1710.16,-123.8"/>
<polygon fill="black" stroke="black" points="1710.16,-127.3 1720.16,-123.8 1710.16,-120.3 1710.16,-127.3"/>
</g>
<!-- TrendingFavouriteComponent -->
<g id="node15" class="node">
<title>TrendingFavouriteComponent</title>
<polygon fill="#ffffb3" stroke="black" points="1237.3,-84.8 1050.7,-84.8 1050.7,-48.8 1237.3,-48.8 1237.3,-84.8"/>
<text text-anchor="middle" x="1144" y="-62.6" font-family="Times,serif" font-size="14.00">TrendingFavouriteComponent</text>
</g>
<!-- TrendingFavouriteComponent&#45;&gt;AppModule -->
<g id="edge15" class="edge">
<title>TrendingFavouriteComponent&#45;&gt;AppModule</title>
<path fill="none" stroke="black" d="M1144,-85.1C1144,-103.07 1144,-127.8 1144,-127.8 1144,-127.8 1710.01,-127.8 1710.01,-127.8"/>
<polygon fill="black" stroke="black" points="1710.01,-131.3 1720.01,-127.8 1710.01,-124.3 1710.01,-131.3"/>
</g>
<!-- TrendingHomeComponent -->
<g id="node16" class="node">
<title>TrendingHomeComponent</title>
<polygon fill="#ffffb3" stroke="black" points="1032.36,-84.8 865.64,-84.8 865.64,-48.8 1032.36,-48.8 1032.36,-84.8"/>
<text text-anchor="middle" x="949" y="-62.6" font-family="Times,serif" font-size="14.00">TrendingHomeComponent</text>
</g>
<!-- TrendingHomeComponent&#45;&gt;AppModule -->
<g id="edge16" class="edge">
<title>TrendingHomeComponent&#45;&gt;AppModule</title>
<path fill="none" stroke="black" d="M949,-84.97C949,-103.89 949,-130.8 949,-130.8 949,-130.8 1710.28,-130.8 1710.28,-130.8"/>
<polygon fill="black" stroke="black" points="1710.28,-134.3 1720.28,-130.8 1710.28,-127.3 1710.28,-134.3"/>
</g>
<!-- TrendingMoviesComponent -->
<g id="node17" class="node">
<title>TrendingMoviesComponent</title>
<polygon fill="#ffffb3" stroke="black" points="847.15,-84.8 672.85,-84.8 672.85,-48.8 847.15,-48.8 847.15,-84.8"/>
<text text-anchor="middle" x="760" y="-62.6" font-family="Times,serif" font-size="14.00">TrendingMoviesComponent</text>
</g>
<!-- TrendingMoviesComponent&#45;&gt;AppModule -->
<g id="edge17" class="edge">
<title>TrendingMoviesComponent&#45;&gt;AppModule</title>
<path fill="none" stroke="black" d="M760,-85.11C760,-104.95 760,-133.8 760,-133.8 760,-133.8 1710.22,-133.8 1710.22,-133.8"/>
<polygon fill="black" stroke="black" points="1710.22,-137.3 1720.22,-133.8 1710.22,-130.3 1710.22,-137.3"/>
</g>
<!-- TrendingPeopleComponent -->
<g id="node18" class="node">
<title>TrendingPeopleComponent</title>
<polygon fill="#ffffb3" stroke="black" points="654.25,-84.8 483.75,-84.8 483.75,-48.8 654.25,-48.8 654.25,-84.8"/>
<text text-anchor="middle" x="569" y="-62.6" font-family="Times,serif" font-size="14.00">TrendingPeopleComponent</text>
</g>
<!-- TrendingPeopleComponent&#45;&gt;AppModule -->
<g id="edge18" class="edge">
<title>TrendingPeopleComponent&#45;&gt;AppModule</title>
<path fill="none" stroke="black" d="M569,-84.83C569,-105.57 569,-136.8 569,-136.8 569,-136.8 1710.24,-136.8 1710.24,-136.8"/>
<polygon fill="black" stroke="black" points="1710.24,-140.3 1720.24,-136.8 1710.24,-133.3 1710.24,-140.3"/>
</g>
<!-- TrendingTvComponent -->
<g id="node19" class="node">
<title>TrendingTvComponent</title>
<polygon fill="#ffffb3" stroke="black" points="466.2,-84.8 317.8,-84.8 317.8,-48.8 466.2,-48.8 466.2,-84.8"/>
<text text-anchor="middle" x="392" y="-62.6" font-family="Times,serif" font-size="14.00">TrendingTvComponent</text>
</g>
<!-- TrendingTvComponent&#45;&gt;AppModule -->
<g id="edge19" class="edge">
<title>TrendingTvComponent&#45;&gt;AppModule</title>
<path fill="none" stroke="black" d="M392,-85.09C392,-107.01 392,-140.8 392,-140.8 392,-140.8 1710.25,-140.8 1710.25,-140.8"/>
<polygon fill="black" stroke="black" points="1710.25,-144.3 1720.25,-140.8 1710.25,-137.3 1710.25,-144.3"/>
</g>
<!-- AppComponent  -->
<g id="node22" class="node">
<title>AppComponent </title>
<polygon fill="#80b1d3" stroke="black" points="1816.44,-214.8 1707.56,-214.8 1707.56,-178.8 1816.44,-178.8 1816.44,-214.8"/>
<text text-anchor="middle" x="1762" y="-192.6" font-family="Times,serif" font-size="14.00">AppComponent </text>
</g>
<!-- AppModule&#45;&gt;AppComponent  -->
<g id="edge21" class="edge">
<title>AppModule&#45;&gt;AppComponent </title>
<path fill="none" stroke="black" stroke-dasharray="1,5" d="M1762,-149.91C1762,-149.91 1762,-168.79 1762,-168.79"/>
<polygon fill="black" stroke="black" points="1758.5,-168.79 1762,-178.79 1765.5,-168.79 1758.5,-168.79"/>
</g>
<!-- AppRoutingModule -->
<g id="node21" class="node">
<title>AppRoutingModule</title>
<polygon fill="#8dd3c7" stroke="black" points="294.28,-84.8 291.28,-88.8 270.28,-88.8 267.28,-84.8 165.72,-84.8 165.72,-48.8 294.28,-48.8 294.28,-84.8"/>
<text text-anchor="middle" x="230" y="-62.6" font-family="Times,serif" font-size="14.00">AppRoutingModule</text>
</g>
<!-- AppRoutingModule&#45;&gt;AppModule -->
<g id="edge20" class="edge">
<title>AppRoutingModule&#45;&gt;AppModule</title>
<path fill="none" stroke="black" d="M230,-85.05C230,-107.82 230,-143.8 230,-143.8 230,-143.8 1710.23,-143.8 1710.23,-143.8"/>
<polygon fill="black" stroke="black" points="1710.23,-147.3 1720.23,-143.8 1710.23,-140.3 1710.23,-147.3"/>
</g>
<!-- HeaderLang -->
<g id="node23" class="node">
<title>HeaderLang</title>
<ellipse fill="#fdb462" stroke="black" cx="83" cy="-66.8" rx="58.51" ry="18"/>
<text text-anchor="middle" x="83" y="-62.6" font-family="Times,serif" font-size="14.00">HeaderLang</text>
</g>
<!-- HeaderLang&#45;&gt;AppModule -->
<g id="edge22" class="edge">
<title>HeaderLang&#45;&gt;AppModule</title>
<path fill="none" stroke="black" d="M83,-84.95C83,-108.56 83,-146.8 83,-146.8 83,-146.8 1710.08,-146.8 1710.08,-146.8"/>
<polygon fill="black" stroke="black" points="1710.08,-150.3 1720.08,-146.8 1710.08,-143.3 1710.08,-150.3"/>
</g>
<!-- LoginComponent -->
<g id="node24" class="node">
<title>LoginComponent</title>
<polygon fill="#ffffb3" stroke="black" points="3740.27,-84.8 3625.73,-84.8 3625.73,-48.8 3740.27,-48.8 3740.27,-84.8"/>
<text text-anchor="middle" x="3683" y="-62.6" font-family="Times,serif" font-size="14.00">LoginComponent</text>
</g>
<!-- AuthModule -->
<g id="node26" class="node">
<title>AuthModule</title>
<polygon fill="#8dd3c7" stroke="black" points="3587.55,-149.8 3584.55,-153.8 3563.55,-153.8 3560.55,-149.8 3500.45,-149.8 3500.45,-113.8 3587.55,-113.8 3587.55,-149.8"/>
<text text-anchor="middle" x="3544" y="-127.6" font-family="Times,serif" font-size="14.00">AuthModule</text>
</g>
<!-- LoginComponent&#45;&gt;AuthModule -->
<g id="edge23" class="edge">
<title>LoginComponent&#45;&gt;AuthModule</title>
<path fill="none" stroke="black" d="M3683,-84.91C3683,-104.14 3683,-131.8 3683,-131.8 3683,-131.8 3597.6,-131.8 3597.6,-131.8"/>
<polygon fill="black" stroke="black" points="3597.6,-128.3 3587.6,-131.8 3597.6,-135.3 3597.6,-128.3"/>
</g>
<!-- RegisterComponent -->
<g id="node25" class="node">
<title>RegisterComponent</title>
<polygon fill="#ffffb3" stroke="black" points="3607.99,-84.8 3480.01,-84.8 3480.01,-48.8 3607.99,-48.8 3607.99,-84.8"/>
<text text-anchor="middle" x="3544" y="-62.6" font-family="Times,serif" font-size="14.00">RegisterComponent</text>
</g>
<!-- RegisterComponent&#45;&gt;AuthModule -->
<g id="edge24" class="edge">
<title>RegisterComponent&#45;&gt;AuthModule</title>
<path fill="none" stroke="black" d="M3544,-84.91C3544,-84.91 3544,-103.79 3544,-103.79"/>
<polygon fill="black" stroke="black" points="3540.5,-103.79 3544,-113.79 3547.5,-103.79 3540.5,-103.79"/>
</g>
<!-- AuthRoutingModule -->
<g id="node27" class="node">
<title>AuthRoutingModule</title>
<polygon fill="#8dd3c7" stroke="black" points="3456.17,-84.8 3453.17,-88.8 3432.17,-88.8 3429.17,-84.8 3323.83,-84.8 3323.83,-48.8 3456.17,-48.8 3456.17,-84.8"/>
<text text-anchor="middle" x="3390" y="-62.6" font-family="Times,serif" font-size="14.00">AuthRoutingModule</text>
</g>
<!-- AuthRoutingModule&#45;&gt;AuthModule -->
<g id="edge25" class="edge">
<title>AuthRoutingModule&#45;&gt;AuthModule</title>
<path fill="none" stroke="black" d="M3390,-84.85C3390,-99.17 3390,-116.8 3390,-116.8 3390,-116.8 3490.28,-116.8 3490.28,-116.8"/>
<polygon fill="black" stroke="black" points="3490.28,-120.3 3500.28,-116.8 3490.28,-113.3 3490.28,-120.3"/>
</g>
</g>
</svg>
